# xmcd
#
# Track frame offsets: 
#        150
#        17437
#        34081
#        52538
#        69322
#        88076
#        104585
#        123273
#        138084
#        155231
#        173316
#        189453
#        208987
#        225148
#
# Disc length: 3253 seconds
#
# Revision: 0
# Processed by: cddbd v1.5.2PL0 Copyright (c) Steve Scherf et al.
# Submitted via: ExactAudioCopy v0.99pb5
#
DISCID=a70cb30e
DTITLE=Ashanti - The Vault
DYEAR=2009
DGENRE=R&B
TTITLE0=Imagine Life
TTITLE1=Don't Need You
TTITLE2=Let's Do Somethng Crazy
TTITLE3=Pretty Little Flower
TTITLE4=Where I Stand
TTITLE5=Satisfy
TTITLE6=Show You
TTITLE7=Mrs So So
TTITLE8=No Words
TTITLE9=Saw Your Face
TTITLE10=Girls In The Movies
TTITLE11=To The Club
TTITLE12=Summertime
TTITLE13=Gotta Get Out (Migs Mix)
EXTD=
EXTT0=
EXTT1=
EXTT2=
EXTT3=
EXTT4=
EXTT5=
EXTT6=
EXTT7=
EXTT8=
EXTT9=
EXTT10=
EXTT11=
EXTT12=
EXTT13=
PLAYORDER=
